<svg xmlns="http://www.w3.org/2000/svg" viewBox="0 0 48 48"><radialGradient id="qYCDFjdN4oOaN2IqmcO3va" cx="-248" cy="24" r="18" fx="-248.095" fy="16.289" gradientTransform="matrix(-1 0 0 1 -224 0)" gradientUnits="userSpaceOnUse"><stop offset="0" stop-color="#ffe16e"/><stop offset=".629" stop-color="#ffd426"/><stop offset=".72" stop-color="#fdcd23"/><stop offset=".854" stop-color="#f8b919"/><stop offset="1" stop-color="#f09c0c"/></radialGradient><circle cx="24" cy="24" r="18" fill="url(#qYCDFjdN4oOaN2IqmcO3va)"/><path fill="#fff" d="M35,22c0,2.209-1.791,4-4,4s-4-1.791-4-4c0,0,1.791-1,4-1S35,22,35,22z"/><path fill="#212121" d="M29.156,21.224C29.056,21.463,29,21.725,29,22c0,1.105,0.895,2,2,2s2-0.895,2-2c0-0.275-0.056-0.537-0.156-0.776C32.29,21.096,31.669,21,31,21S29.71,21.096,29.156,21.224z"/><path fill="#fff" d="M13,22c0,2.209,1.791,4,4,4s4-1.791,4-4c0,0-1.791-1-4-1S13,22,13,22z"/><path fill="#212121" d="M18.844,21.224C18.944,21.463,19,21.725,19,22c0,1.105-0.895,2-2,2s-2-0.895-2-2c0-0.275,0.056-0.537,0.156-0.776C15.71,21.096,16.331,21,17,21S18.29,21.096,18.844,21.224z"/><radialGradient id="qYCDFjdN4oOaN2IqmcO3vb" cx="24.032" cy="30.566" r="3.329" gradientTransform="matrix(.0227 .9997 -4.7791 .1086 169.565 3.22)" gradientUnits="userSpaceOnUse"><stop offset=".629" stop-color="#ffe16e"/><stop offset=".871" stop-color="#ffe16e" stop-opacity="0"/></radialGradient><path fill="url(#qYCDFjdN4oOaN2IqmcO3vb)" d="M16.995,33.33c0,0,1.618,0.67,7.004,0.67c4.989,0,7-0.67,7-0.67S29.749,32,24,32S16.995,33.33,16.995,33.33z"/><radialGradient id="qYCDFjdN4oOaN2IqmcO3vc" cx="704.092" cy="-800.057" r="7.716" gradientTransform="matrix(-1 0 0 -.4017 728 -289.325)" gradientUnits="userSpaceOnUse"><stop offset=".284" stop-color="#cc9000"/><stop offset="1" stop-color="#cc9000" stop-opacity="0"/></radialGradient><path fill="url(#qYCDFjdN4oOaN2IqmcO3vc)" d="M24,33c5.488,0,6.974,0.609,6.974,0.609S29.55,35,24,35s-6.974-1.391-6.974-1.391S18.512,33,24,33z"/><radialGradient id="qYCDFjdN4oOaN2IqmcO3vd" cx="704" cy="-800.602" r="7.732" gradientTransform="matrix(-1 0 0 -.3754 728 -267.927)" gradientUnits="userSpaceOnUse"><stop offset="0" stop-color="#1c1911"/><stop offset=".999" stop-color="#171714"/></radialGradient><path fill="url(#qYCDFjdN4oOaN2IqmcO3vd)" d="M17.026,33.297c-0.543,0.221-0.949-0.52-0.478-0.87C18.199,31.202,20.667,30,24,30s5.801,1.202,7.452,2.427c0.471,0.349,0.065,1.09-0.478,0.87C29.309,32.62,26.972,32,24,32S18.691,32.62,17.026,33.297z"/></svg>
