<svg xmlns="http://www.w3.org/2000/svg" viewBox="0 0 48 48"><radialGradient id="4MdbPrvfnJ9xivuTNIR94a" cx="-384" cy="24" r="18" fx="-384.095" fy="16.289" gradientTransform="matrix(-1 0 0 1 -360 0)" gradientUnits="userSpaceOnUse"><stop offset="0" stop-color="#ffe16e"/><stop offset=".629" stop-color="#ffd226"/><stop offset=".75" stop-color="#fdcd23"/><stop offset=".899" stop-color="#f6bd1b"/><stop offset=".999" stop-color="#f0af13"/></radialGradient><circle cx="24" cy="24" r="18" fill="url(#4MdbPrvfnJ9xivuTNIR94a)"/><radialGradient id="4MdbPrvfnJ9xivuTNIR94b" cx="7.078" cy="30.448" r="10.607" gradientTransform="matrix(1.0906 0 0 1.6895 16.301 -28.269)" gradientUnits="userSpaceOnUse"><stop offset=".885" stop-color="#cc9000"/><stop offset="1" stop-color="#cc9000" stop-opacity="0"/></radialGradient><path fill="url(#4MdbPrvfnJ9xivuTNIR94b)" d="M24,39c-7.653,0-10-7.683-10-7.683S16.255,41,24,41s10-9.683,10-9.683S31.653,39,24,39z"/><radialGradient id="4MdbPrvfnJ9xivuTNIR94c" cx="30.083" cy="24.461" r="14.906" gradientTransform="matrix(-.0057 .9707 -.7563 -.0044 42.599 -4.205)" gradientUnits="userSpaceOnUse"><stop offset=".371" stop-color="#ffd226"/><stop offset=".871" stop-color="#ffe16e"/><stop offset=".939" stop-color="#ffe16e"/><stop offset="1" stop-color="#ffe16e" stop-opacity="0"/></radialGradient><path fill="url(#4MdbPrvfnJ9xivuTNIR94c)" d="M33.979,31.235c0,0-2.352,7.765-9.979,7.765s-9.951-7.765-9.951-7.765L24,32.426L33.979,31.235z"/><radialGradient id="4MdbPrvfnJ9xivuTNIR94d" cx="29.01" cy="29.835" r="7.164" gradientUnits="userSpaceOnUse"><stop offset="0" stop-color="#1c1911"/><stop offset=".999" stop-color="#171714"/></radialGradient><path fill="url(#4MdbPrvfnJ9xivuTNIR94d)" d="M24,38c6.44,0,9.885-6.527,9.885-6.527l-1.378-1.344c0,0-3.202,1.871-8.507,1.871V38z"/><radialGradient id="4MdbPrvfnJ9xivuTNIR94e" cx="33.014" cy="29.925" r="1.731" gradientUnits="userSpaceOnUse"><stop offset="0" stop-color="#1c1911"/><stop offset=".999" stop-color="#171714"/></radialGradient><circle cx="33" cy="31" r="1" fill="url(#4MdbPrvfnJ9xivuTNIR94e)"/><radialGradient id="4MdbPrvfnJ9xivuTNIR94f" cx="-378.99" cy="29.835" r="7.164" gradientTransform="matrix(-1 0 0 1 -360 0)" gradientUnits="userSpaceOnUse"><stop offset="0" stop-color="#1c1911"/><stop offset=".999" stop-color="#171714"/></radialGradient><path fill="url(#4MdbPrvfnJ9xivuTNIR94f)" d="M24,38c-6.44,0-9.885-6.527-9.885-6.527l1.378-1.344c0,0,3.202,1.871,8.507,1.871V38z"/><radialGradient id="4MdbPrvfnJ9xivuTNIR94g" cx="-374.986" cy="29.925" r="1.731" gradientTransform="matrix(-1 0 0 1 -360 0)" gradientUnits="userSpaceOnUse"><stop offset="0" stop-color="#1c1911"/><stop offset=".999" stop-color="#171714"/></radialGradient><circle cx="15" cy="31" r="1" fill="url(#4MdbPrvfnJ9xivuTNIR94g)"/><path fill="#212121" d="M34.499,27c-0.102,0-0.204-0.031-0.292-0.095C34.18,26.886,31.525,25,27.5,25c-0.24,0-0.446-0.17-0.491-0.405c-0.045-0.235,0.083-0.47,0.306-0.559l5-2c0.254-0.103,0.547,0.022,0.65,0.279c0.103,0.256-0.022,0.547-0.279,0.65l-0.453,0.181c-0.777,0.311-0.742,1.406,0.044,1.692c1.547,0.563,2.452,1.211,2.517,1.258c0.223,0.163,0.272,0.475,0.11,0.698C34.807,26.928,34.654,27,34.499,27z"/><path fill="#212121" d="M13.501,27c0.102,0,0.204-0.031,0.292-0.095C13.82,26.886,16.475,25,20.5,25c0.24,0,0.446-0.17,0.491-0.405c0.045-0.235-0.083-0.47-0.306-0.559l-5-2c-0.254-0.103-0.547,0.022-0.65,0.279c-0.103,0.256,0.022,0.547,0.279,0.65l0.453,0.181c0.777,0.311,0.742,1.406-0.044,1.692c-1.547,0.563-2.452,1.211-2.517,1.258c-0.223,0.163-0.272,0.475-0.11,0.698C13.193,26.928,13.346,27,13.501,27z"/><radialGradient id="4MdbPrvfnJ9xivuTNIR94h" cx="23.707" cy="17.269" r="26.713" gradientTransform="matrix(0 1 -.9954 0 40.896 -6.438)" gradientUnits="userSpaceOnUse"><stop offset=".575" stop-color="#210003"/><stop offset=".632" stop-color="#7d000a"/><stop offset=".677" stop-color="#b01c28"/><stop offset=".684" stop-color="#c5333f"/><stop offset=".725" stop-color="#db515d"/><stop offset=".796" stop-color="#ff828c"/><stop offset=".836" stop-color="#f4747e"/><stop offset=".91" stop-color="#d8505b"/><stop offset="1" stop-color="#b01c28"/></radialGradient><path fill="url(#4MdbPrvfnJ9xivuTNIR94h)" d="M27.993,32.765C26.848,32.91,25.53,33,24,33s-2.848-0.09-3.993-0.235c0,0-1.007,2.692-1.007,6.235c0,2.745,2.239,5,5,5s5-2.255,5-5C29,35.457,27.993,32.765,27.993,32.765z"/><linearGradient id="4MdbPrvfnJ9xivuTNIR94i" x1="24" x2="24" y1="32.958" y2="40.57" gradientUnits="userSpaceOnUse"><stop offset="0" stop-color="#0d0003"/><stop offset=".325" stop-color="#7d001b"/><stop offset=".329" stop-color="#8a001e"/><stop offset=".33" stop-color="#910020"/><stop offset="1" stop-color="#ba001c" stop-opacity="0"/></linearGradient><path fill="url(#4MdbPrvfnJ9xivuTNIR94i)" d="M24,41L24,41c0.147,0,0.27-0.114,0.279-0.261l0.52-7.751C24.537,32.994,24.276,33,24,33s-0.537-0.006-0.8-0.012l0.52,7.751C23.73,40.886,23.853,41,24,41z"/></svg>
