<svg xmlns="http://www.w3.org/2000/svg" viewBox="0 0 48 48"><radialGradient id="khXxhsYHjdKFFjqXHu0Wia" cx="-248" cy="24" r="18" fx="-248.095" fy="16.289" gradientTransform="matrix(-1 0 0 1 -224 0)" gradientUnits="userSpaceOnUse"><stop offset="0" stop-color="#ffe16e"/><stop offset=".629" stop-color="#ffd226"/><stop offset=".75" stop-color="#fdcd23"/><stop offset=".899" stop-color="#f6bd1b"/><stop offset=".999" stop-color="#f0af13"/></radialGradient><circle cx="24" cy="24" r="18" fill="url(#khXxhsYHjdKFFjqXHu0Wia)"/><radialGradient id="khXxhsYHjdKFFjqXHu0Wib" cx="24" cy="26.779" r="11.171" fx="23.992" fy="27.198" gradientTransform="rotate(-22.5 23.999 23.999)" gradientUnits="userSpaceOnUse"><stop offset=".371" stop-color="#ffd226"/><stop offset=".948" stop-color="#ffe16e"/><stop offset="1" stop-color="#ffe16e" stop-opacity="0"/></radialGradient><path fill="url(#khXxhsYHjdKFFjqXHu0Wib)" d="M34.928,21.638c0,0,4.721,11.033-5.57,15.296s-14.755-6.877-14.755-6.877 s2.258-0.935,10.163-4.21S34.928,21.638,34.928,21.638z"/><radialGradient id="khXxhsYHjdKFFjqXHu0Wic" cx="24.15" cy="25.589" r="11.863" gradientTransform="rotate(-22.5 23.999 23.999)" gradientUnits="userSpaceOnUse"><stop offset="0" stop-color="#1c1911"/><stop offset=".999" stop-color="#171714"/></radialGradient><path fill="url(#khXxhsYHjdKFFjqXHu0Wic)" d="M34.928,21.638c2.325,5.613-0.34,12.047-5.953,14.372s-12.047-0.34-14.372-5.953 L34.928,21.638z"/><radialGradient id="khXxhsYHjdKFFjqXHu0Wid" cx="24.101" cy="29.227" r="10.381" gradientTransform="rotate(-22.5 23.999 23.999)" gradientUnits="userSpaceOnUse"><stop offset=".819" stop-color="#cc9000"/><stop offset=".988" stop-color="#fbbc23" stop-opacity=".069"/><stop offset="1" stop-color="#ffbf26" stop-opacity="0"/></radialGradient><path fill="url(#khXxhsYHjdKFFjqXHu0Wid)" d="M29.358,36.934c-3.219,1.333-6.662,1.268-9.672,0.1c2.773,2.443,6.793,3.258,10.437,1.748 c3.645-1.51,5.911-4.928,6.144-8.616C34.965,33.12,32.576,35.601,29.358,36.934z"/><radialGradient id="khXxhsYHjdKFFjqXHu0Wie" cx="23.707" cy="8.631" r="34.089" gradientTransform="matrix(0 1 -.9954 0 32.298 -15.075)" gradientUnits="userSpaceOnUse"><stop offset=".575" stop-color="#210003"/><stop offset=".604" stop-color="#7d000a"/><stop offset=".643" stop-color="#c5333f"/><stop offset=".7" stop-color="#db515d"/><stop offset=".796" stop-color="#ff828c"/><stop offset=".836" stop-color="#f4747e"/><stop offset=".91" stop-color="#d8505b"/><stop offset="1" stop-color="#b01c28"/></radialGradient><path fill="url(#khXxhsYHjdKFFjqXHu0Wie)" d="M27.461,28.555l-7.454,3.21c0,0-1.007,2.692-1.007,6.235c0,2.745,2.239,5,5,5s5-2.255,5-5 C29,34.457,27.461,28.555,27.461,28.555z"/><linearGradient id="khXxhsYHjdKFFjqXHu0Wif" x1="24.038" x2="24.038" y1="27.93" y2="39.316" gradientUnits="userSpaceOnUse"><stop offset="0" stop-color="#0d0003"/><stop offset=".325" stop-color="#7d001b"/><stop offset=".329" stop-color="#8a001e"/><stop offset=".33" stop-color="#910020"/><stop offset="1" stop-color="#ba001c" stop-opacity="0"/></linearGradient><path fill="url(#khXxhsYHjdKFFjqXHu0Wif)" d="M24,40L24,40c0.147,0,0.27-0.114,0.279-0.261l0.723-10.461 c-0.262,0.006-1.666,0.729-1.928,0.723l0.646,9.738C23.73,39.886,23.853,40,24,40z"/><path fill="#99000d" d="M27.914,30.459c-0.254-1.138-0.453-1.904-0.453-1.904l-7.454,3.21 c0,0-0.317,0.847-0.595,2.215L27.914,30.459z" opacity=".56"/><linearGradient id="khXxhsYHjdKFFjqXHu0Wig" x1="15" x2="33" y1="28.5" y2="28.5" gradientTransform="rotate(-22.5 23.999 23.999)" gradientUnits="userSpaceOnUse"><stop offset=".001" stop-color="#968f72"/><stop offset=".048" stop-color="#b2ad97"/><stop offset=".098" stop-color="#cac6b7"/><stop offset=".153" stop-color="#dddbd2"/><stop offset=".213" stop-color="#ecebe6"/><stop offset=".281" stop-color="#f7f6f4"/><stop offset=".363" stop-color="#fdfdfc"/><stop offset=".5" stop-color="#fff"/><stop offset=".637" stop-color="#fdfdfc"/><stop offset=".719" stop-color="#f7f6f4"/><stop offset=".787" stop-color="#ecebe6"/><stop offset=".847" stop-color="#dddbd2"/><stop offset=".902" stop-color="#cac6b7"/><stop offset=".952" stop-color="#b2ad97"/><stop offset="1" stop-color="#968f72"/></linearGradient><path fill="url(#khXxhsYHjdKFFjqXHu0Wig)" d="M16.833,30.216l0.383,0.924c0.423,1.02,1.593,1.505,2.613,1.082l12.934-5.358 c1.02-0.423,1.505-1.593,1.082-2.613l-0.383-0.924L16.833,30.216z"/><circle cx="16" cy="23" r="4" fill="#fff"/><circle cx="17" cy="23" r="2" fill="#212121"/><circle cx="27.5" cy="15.5" r="5.5" fill="#fff"/><circle cx="26" cy="15" r="2" fill="#212121"/></svg>
